<svg xmlns="http://www.w3.org/2000/svg" xmlns:svg="http://www.w3.org/2000/svg" xmlns:xlink="http://www.w3.org/1999/xlink" id="svg8" enable-background="new 0 0 2331.5 2500" version="1.1" viewBox="0 0 2331.5 2500"><metadata id="metadata14"/><defs id="defs12"><clipPath id="clip-path"><polygon id="polygon4" points="136.29 59.02 136.29 210 162.05 195.04 162.05 152.57 181.5 163.82 181.39 134.77 162.05 123.72 162.05 106.85 200.85 129.27 200.76 95.86" class="cls-1"/></clipPath><linearGradient id="linear-gradient" x1="60.08" x2="218.39" y1="134.33" y2="134.33" gradientUnits="userSpaceOnUse"><stop id="stop7" offset="0" stop-color="#ff6f00"/><stop id="stop9" offset="1" stop-color="#ffa800"/></linearGradient><clipPath id="clip-path-2"><polygon id="polygon12" points="130.5 59.02 130.5 210 104.74 195.04 104.74 106.85 65.94 129.27 66.03 95.86" class="cls-1"/></clipPath><linearGradient id="linear-gradient-2" x1="59" x2="217.32" y1="134.33" y2="134.33" xlink:href="#linear-gradient"/><linearGradient id="linearGradient864" x1="60.08" x2="218.39" y1="134.33" y2="134.33" gradientUnits="userSpaceOnUse" xlink:href="#linear-gradient"/></defs><g id="g22" class="cls-2" clip-path="url(#clip-path)" transform="matrix(16.435875,0,0,16.435875,-1016.6162,-954.19641)"><rect id="rect20" width="158.31" height="151.72" x="60.08" y="58.47" class="cls-3" style="fill:url(#linearGradient864)"/></g><g id="g26" class="cls-4" clip-path="url(#clip-path-2)" transform="matrix(16.435875,0,0,16.435875,-1016.6162,-954.19641)"><rect id="rect24" width="158.31" height="151.72" x="59" y="58.47" class="cls-5" style="fill:url(#linear-gradient-2)"/></g></svg>